<?xml version="1.0" encoding="UTF-8"?>
<!DOCTYPE svg PUBLIC "-//W3C//DTD SVG 1.1//EN" "http://www.w3.org/Graphics/SVG/1.1/DTD/svg11.dtd">
<svg xmlns="http://www.w3.org/2000/svg" version="1.1" width="512px" height="512px" style="shape-rendering:geometricPrecision; text-rendering:geometricPrecision; image-rendering:optimizeQuality; fill-rule:evenodd; clip-rule:evenodd" xmlns:xlink="http://www.w3.org/1999/xlink">
<g><path style="opacity:1" fill="#feb41a" d="M 186.5,-0.5 C 191.833,-0.5 197.167,-0.5 202.5,-0.5C 196.836,1.60184 192.336,5.26851 189,10.5C 180.412,26.0081 172.079,41.6748 164,57.5C 157.655,86.8207 168.488,106.487 196.5,116.5C 190.773,116.74 185.106,116.407 179.5,115.5C 157.928,109.394 146.595,95.0606 145.5,72.5C 145.752,67.4052 146.586,62.4052 148,57.5C 156.079,41.6748 164.412,26.0081 173,10.5C 176.213,5.10748 180.713,1.44082 186.5,-0.5 Z"/></g>
<g><path style="opacity:1" fill="#fed61a" d="M 202.5,-0.5 C 218.167,-0.5 233.833,-0.5 249.5,-0.5C 244.91,23.4495 240.577,47.4495 236.5,71.5C 234.751,87.4943 227.418,100.328 214.5,110C 208.808,113.064 202.808,115.23 196.5,116.5C 168.488,106.487 157.655,86.8207 164,57.5C 172.079,41.6748 180.412,26.0081 189,10.5C 192.336,5.26851 196.836,1.60184 202.5,-0.5 Z"/></g>
<g><path style="opacity:1" fill="#ff5c52" d="M 249.5,-0.5 C 254.833,-0.5 260.167,-0.5 265.5,-0.5C 261.38,20.1733 257.213,40.84 253,61.5C 249.335,89.5292 260.835,107.863 287.5,116.5C 256.398,117.394 239.398,102.394 236.5,71.5C 240.577,47.4495 244.91,23.4495 249.5,-0.5 Z"/></g>
<g><path style="opacity:1" fill="#fe8353" d="M 265.5,-0.5 C 286.5,-0.5 307.5,-0.5 328.5,-0.5C 328.5,25.5 328.5,51.5 328.5,77.5C 324.336,100.327 310.67,113.327 287.5,116.5C 260.835,107.863 249.335,89.5292 253,61.5C 257.213,40.84 261.38,20.1733 265.5,-0.5 Z"/></g>
<g><path style="opacity:1" fill="#ffb31b" d="M 328.5,-0.5 C 333.5,-0.5 338.5,-0.5 343.5,-0.5C 343.043,27.5425 343.543,55.5425 345,83.5C 351.047,101.385 363.213,112.385 381.5,116.5C 361.968,118.979 346.468,112.313 335,96.5C 331.731,90.5244 329.564,84.1911 328.5,77.5C 328.5,51.5 328.5,25.5 328.5,-0.5 Z"/></g>
<g><path style="opacity:1" fill="#fed61b" d="M 343.5,-0.5 C 364.833,-0.5 386.167,-0.5 407.5,-0.5C 413.194,24.3049 417.861,49.3049 421.5,74.5C 418.053,97.9462 404.72,111.946 381.5,116.5C 363.213,112.385 351.047,101.385 345,83.5C 343.543,55.5425 343.043,27.5425 343.5,-0.5 Z"/></g>
<g><path style="opacity:1" fill="#ff5b52" d="M 407.5,-0.5 C 412.5,-0.5 417.5,-0.5 422.5,-0.5C 427.885,29.2592 433.719,58.9259 440,88.5C 446.431,103.108 457.264,112.441 472.5,116.5C 468.5,116.5 464.5,116.5 460.5,116.5C 444.455,113.286 432.955,104.286 426,89.5C 424.558,84.3525 423.058,79.3525 421.5,74.5C 417.861,49.3049 413.194,24.3049 407.5,-0.5 Z"/></g>
<g><path style="opacity:0.995" fill="#ff8352" d="M 422.5,-0.5 C 438.833,-0.5 455.167,-0.5 471.5,-0.5C 476.642,1.50325 480.809,4.83658 484,9.5C 493.752,27.0077 502.918,44.6744 511.5,62.5C 511.5,68.8333 511.5,75.1667 511.5,81.5C 507.186,99.8145 495.852,111.148 477.5,115.5C 475.708,115.366 474.042,115.699 472.5,116.5C 457.264,112.441 446.431,103.108 440,88.5C 433.719,58.9259 427.885,29.2592 422.5,-0.5 Z"/></g>
<g><path style="opacity:1" fill="#fefefe" d="M 236.5,71.5 C 239.398,102.394 256.398,117.394 287.5,116.5C 310.67,113.327 324.336,100.327 328.5,77.5C 329.564,84.1911 331.731,90.5244 335,96.5C 346.468,112.313 361.968,118.979 381.5,116.5C 404.72,111.946 418.053,97.9462 421.5,74.5C 423.058,79.3525 424.558,84.3525 426,89.5C 432.955,104.286 444.455,113.286 460.5,116.5C 460.667,241.834 460.5,367.167 460,492.5C 459.167,493.333 458.333,494.167 457.5,495C 405.501,495.5 353.501,495.667 301.5,495.5C 308.559,485.312 311.559,473.978 310.5,461.5C 306.167,461.5 301.833,461.5 297.5,461.5C 297.5,449.833 297.5,438.167 297.5,426.5C 301.833,426.5 306.167,426.5 310.5,426.5C 314.855,401.38 308.188,379.88 290.5,362C 282.939,355.553 274.272,351.219 264.5,349C 247.876,347.592 231.209,347.092 214.5,347.5C 215.617,329.176 216.617,310.842 217.5,292.5C 235.021,291.125 242.188,281.792 239,264.5C 234.896,255.194 227.729,250.528 217.5,250.5C 215.573,231.039 208.573,213.706 196.5,198.5C 196.5,171.167 196.5,143.833 196.5,116.5C 202.808,115.23 208.808,113.064 214.5,110C 227.418,100.328 234.751,87.4943 236.5,71.5 Z"/></g>
<g><path style="opacity:0.977" fill="#f7d9ad" d="M 127.5,162.5 C 126.883,162.611 126.383,162.944 126,163.5C 125.5,192.498 125.333,221.498 125.5,250.5C 121.833,250.5 118.167,250.5 114.5,250.5C 114.5,221.833 114.5,193.167 114.5,164.5C 69.8142,176.184 44.1475,204.85 37.5,250.5C 35.1667,250.5 32.8333,250.5 30.5,250.5C 27.5,250.5 24.5,250.5 21.5,250.5C 27.5745,208.52 50.5745,180.354 90.5,166C 97.9444,163.978 105.444,162.478 113,161.5C 113.667,149.5 113.667,137.5 113,125.5C 101.184,120.671 89.3503,115.838 77.5,111C 73.7243,102.557 76.391,99.2236 85.5,101C 98.7381,106.021 111.738,111.521 124.5,117.5C 124.839,132.695 125.839,147.695 127.5,162.5 Z"/></g>
<g><path style="opacity:0.961" fill="#6082b1" d="M 179.5,115.5 C 185.106,116.407 190.773,116.74 196.5,116.5C 196.5,143.833 196.5,171.167 196.5,198.5C 191.167,192.5 185.5,186.833 179.5,181.5C 179.5,159.5 179.5,137.5 179.5,115.5 Z"/></g>
<g><path style="opacity:0.993" fill="#6384b3" d="M 477.5,115.5 C 477.667,242.5 477.5,369.5 477,496.5C 473.979,503.353 469.145,508.353 462.5,511.5C 399.167,511.5 335.833,511.5 272.5,511.5C 283.993,509.585 293.66,504.251 301.5,495.5C 353.501,495.667 405.501,495.5 457.5,495C 458.333,494.167 459.167,493.333 460,492.5C 460.5,367.167 460.667,241.834 460.5,116.5C 464.5,116.5 468.5,116.5 472.5,116.5C 474.042,115.699 475.708,115.366 477.5,115.5 Z"/></g>
<g><path style="opacity:1" fill="#2ab87f" d="M 331.5,149.5 C 295.668,158.842 275.668,182.008 271.5,219C 274.5,258.487 295.167,282.653 333.5,291.5C 300.976,291.827 277.476,277.494 263,248.5C 251.658,216.703 258.158,189.203 282.5,166C 296.676,154.219 313.009,148.719 331.5,149.5 Z"/></g>
<g><path style="opacity:1" fill="#58dc72" d="M 331.5,149.5 C 367.4,153.234 389.9,172.567 399,207.5C 402.854,238.64 392.02,263.14 366.5,281C 356.212,286.818 345.212,290.318 333.5,291.5C 295.167,282.653 274.5,258.487 271.5,219C 275.668,182.008 295.668,158.842 331.5,149.5 Z"/></g>
<g><path style="opacity:0.997" fill="#fef7d9" d="M 127.5,162.5 C 146.781,163.703 164.115,170.036 179.5,181.5C 185.5,186.833 191.167,192.5 196.5,198.5C 208.573,213.706 215.573,231.039 217.5,250.5C 186.833,250.5 156.167,250.5 125.5,250.5C 125.333,221.498 125.5,192.498 126,163.5C 126.383,162.944 126.883,162.611 127.5,162.5 Z"/></g>
<g><path style="opacity:1" fill="#fef7d8" d="M 114.5,250.5 C 88.8333,250.5 63.1667,250.5 37.5,250.5C 44.1475,204.85 69.8142,176.184 114.5,164.5C 114.5,193.167 114.5,221.833 114.5,250.5 Z"/></g>
<g><path style="opacity:1" fill="#fbfefb" d="M 364.5,186.5 C 371.024,186.349 373.357,189.349 371.5,195.5C 344.64,209.527 324.307,230.027 310.5,257C 307.833,259 305.167,259 302.5,257C 295.702,246.57 288.536,236.404 281,226.5C 280.578,220.437 283.411,218.27 289.5,220C 295,227.5 300.5,235 306,242.5C 320.176,218.155 339.676,199.489 364.5,186.5 Z"/></g>
<g><path style="opacity:1" fill="#ffb419" d="M 21.5,250.5 C 24.5,250.5 27.5,250.5 30.5,250.5C 15.0016,257.839 11.1682,269.173 19,284.5C 22.4821,287.839 26.3155,290.506 30.5,292.5C 27.2869,292.19 24.2869,292.523 21.5,293.5C 21.1667,293.5 20.8333,293.5 20.5,293.5C 10.4716,292.659 3.47163,287.659 -0.5,278.5C -0.5,273.833 -0.5,269.167 -0.5,264.5C 3.54111,254.805 10.8744,250.139 21.5,250.5 Z"/></g>
<g><path style="opacity:1" fill="#ffd71a" d="M 30.5,250.5 C 32.8333,250.5 35.1667,250.5 37.5,250.5C 63.1667,250.5 88.8333,250.5 114.5,250.5C 118.167,250.5 121.833,250.5 125.5,250.5C 156.167,250.5 186.833,250.5 217.5,250.5C 227.729,250.528 234.896,255.194 239,264.5C 242.188,281.792 235.021,291.125 217.5,292.5C 155.167,292.5 92.8333,292.5 30.5,292.5C 26.3155,290.506 22.4821,287.839 19,284.5C 11.1682,269.173 15.0016,257.839 30.5,250.5 Z"/></g>
<g><path style="opacity:1" fill="#ff5b52" d="M 20.5,293.5 C 20.8333,293.5 21.1667,293.5 21.5,293.5C 26.8333,293.5 32.1667,293.5 37.5,293.5C 42.1541,360.17 46.9874,426.837 52,493.5C 54.7894,503.125 60.956,509.125 70.5,511.5C 64.5,511.5 58.5,511.5 52.5,511.5C 43.405,508.901 37.905,502.901 36,493.5C 31.0664,426.758 25.8997,360.091 20.5,293.5 Z"/></g>
<g><path style="opacity:0.999" fill="#ff8353" d="M 21.5,293.5 C 24.2869,292.523 27.2869,292.19 30.5,292.5C 92.8333,292.5 155.167,292.5 217.5,292.5C 216.617,310.842 215.617,329.176 214.5,347.5C 202.833,347.5 191.167,347.5 179.5,347.5C 148.312,346.546 127.145,360.546 116,389.5C 115.206,392.471 114.539,395.471 114,398.5C 113.5,407.827 113.334,417.161 113.5,426.5C 117.833,426.5 122.167,426.5 126.5,426.5C 126.5,437.833 126.5,449.167 126.5,460.5C 122.167,460.5 117.833,460.5 113.5,460.5C 112.258,486.558 123.924,503.558 148.5,511.5C 122.5,511.5 96.5,511.5 70.5,511.5C 60.956,509.125 54.7894,503.125 52,493.5C 46.9874,426.837 42.1541,360.17 37.5,293.5C 32.1667,293.5 26.8333,293.5 21.5,293.5 Z"/></g>
<g><path style="opacity:1" fill="#ffb31a" d="M 179.5,347.5 C 141.515,359.401 125.182,385.401 130.5,425.5C 128.901,425.232 127.568,425.566 126.5,426.5C 122.167,426.5 117.833,426.5 113.5,426.5C 113.334,417.161 113.5,407.827 114,398.5C 114.539,395.471 115.206,392.471 116,389.5C 127.145,360.546 148.312,346.546 179.5,347.5 Z"/></g>
<g><path style="opacity:1" fill="#fed71d" d="M 179.5,347.5 C 191.167,347.5 202.833,347.5 214.5,347.5C 231.209,347.092 247.876,347.592 264.5,349C 274.272,351.219 282.939,355.553 290.5,362C 308.188,379.88 314.855,401.38 310.5,426.5C 306.167,426.5 301.833,426.5 297.5,426.5C 245.833,426.5 194.167,426.5 142.5,426.5C 137.167,426.5 131.833,426.5 126.5,426.5C 127.568,425.566 128.901,425.232 130.5,425.5C 125.182,385.401 141.515,359.401 179.5,347.5 Z"/></g>
<g><path style="opacity:1" fill="#fffdf8" d="M 168.5,379.5 C 175.241,379.39 177.408,382.39 175,388.5C 170.833,392.667 166.667,396.833 162.5,401C 156.143,402.481 153.643,399.981 155,393.5C 159.755,388.908 164.255,384.242 168.5,379.5 Z"/></g>
<g><path style="opacity:1" fill="#fffdf8" d="M 215.5,379.5 C 222.241,379.39 224.408,382.39 222,388.5C 217.833,392.667 213.667,396.833 209.5,401C 203.143,402.481 200.643,399.981 202,393.5C 206.755,388.908 211.255,384.242 215.5,379.5 Z"/></g>
<g><path style="opacity:1" fill="#fffdf8" d="M 262.5,379.5 C 269.241,379.39 271.408,382.39 269,388.5C 264.833,392.667 260.667,396.833 256.5,401C 250.143,402.481 247.643,399.981 249,393.5C 253.755,388.908 258.255,384.242 262.5,379.5 Z"/></g>
<g><path style="opacity:1" fill="#29b87d" d="M 126.5,426.5 C 131.833,426.5 137.167,426.5 142.5,426.5C 142.5,438.167 142.5,449.833 142.5,461.5C 138.167,461.5 133.833,461.5 129.5,461.5C 128.209,461.737 127.209,461.404 126.5,460.5C 126.5,449.167 126.5,437.833 126.5,426.5 Z"/></g>
<g><path style="opacity:1" fill="#59db72" d="M 142.5,426.5 C 194.167,426.5 245.833,426.5 297.5,426.5C 297.5,438.167 297.5,449.833 297.5,461.5C 245.833,461.5 194.167,461.5 142.5,461.5C 142.5,449.833 142.5,438.167 142.5,426.5 Z"/></g>
<g><path style="opacity:1" fill="#ffb31b" d="M 126.5,460.5 C 127.209,461.404 128.209,461.737 129.5,461.5C 128.36,487.244 140.027,503.91 164.5,511.5C 159.167,511.5 153.833,511.5 148.5,511.5C 123.924,503.558 112.258,486.558 113.5,460.5C 117.833,460.5 122.167,460.5 126.5,460.5 Z"/></g>
<g><path style="opacity:1" fill="#fed61a" d="M 129.5,461.5 C 133.833,461.5 138.167,461.5 142.5,461.5C 194.167,461.5 245.833,461.5 297.5,461.5C 301.833,461.5 306.167,461.5 310.5,461.5C 311.559,473.978 308.559,485.312 301.5,495.5C 293.66,504.251 283.993,509.585 272.5,511.5C 236.5,511.5 200.5,511.5 164.5,511.5C 140.027,503.91 128.36,487.244 129.5,461.5 Z"/></g>
</svg>
